<svg width="202" height="217" viewBox="0 0 202 217" fill="none" xmlns="http://www.w3.org/2000/svg">
<path d="M108 84.1366C108 88.3138 104.613 91.7 100.436 91.7H36V109.6H90C99.9 109.6 108 117.655 108 127.5V181.2C108 191.045 99.9 199.1 90 199.1H72V209.437C72 213.614 68.6134 217 64.4358 217H43.5642C39.3866 217 36 213.614 36 209.437V199.1H7.56419C3.3866 199.1 0 195.714 0 191.537V170.863C0 166.686 3.38661 163.3 7.5642 163.3H72V145.4H18C8.1 145.4 0 137.345 0 127.5V73.8C0 63.955 8.1 55.9 18 55.9H36V45.5634C36 41.3862 39.3866 38 43.5642 38H64.4358C68.6134 38 72 41.3862 72 45.5634V55.9H100.436C104.613 55.9 108 59.2862 108 63.4634V84.1366Z" fill="#FBBA06"/>
<path d="M201.492 143.784C201.451 143.587 201.421 143.442 201.391 143.243C200.731 138.926 191.74 83.8247 160.138 63.8068C157.759 62.2996 156.472 59.4555 157.244 56.7484L170.467 10.3757C171.865 5.47256 166.762 1.24871 162.2 3.53393L141.495 13.9078C139.234 15.0405 136.501 14.597 134.715 12.8076L123.652 1.7217C121.361 -0.573903 117.639 -0.5739 115.348 1.72171L104.285 12.8076C102.499 14.597 99.7661 15.0405 97.5053 13.9078L76.7996 3.53393C72.2384 1.24871 67.135 5.47255 68.5331 10.3757L81.7556 56.7484C82.5275 59.4555 81.2409 62.2996 78.8616 63.8068C47.2597 83.8247 38.2695 138.926 37.6092 143.243C37.5788 143.442 37.5495 143.587 37.5083 143.784C36.8099 147.117 31.2339 180 83.0863 180H155.914C207.766 180 202.19 147.117 201.492 143.784Z" fill="#6D3E91"/>
<path fill-rule="evenodd" clip-rule="evenodd" d="M108 180V127.5C108 117.655 99.9 109.6 90 109.6H46.5625C40.3341 126.34 37.9381 141.092 37.6092 143.243C37.5788 143.442 37.5495 143.587 37.5083 143.784C37.4442 144.09 37.3391 144.645 37.241 145.4H72V163.3H40.683C45.7327 171.879 57.3183 180 83.0863 180H108ZM54.6122 91.6999H100.436C104.613 91.6999 108 88.3137 108 84.1365V63.4633C108 59.2861 104.613 55.8999 100.436 55.8999H81.5137L81.7556 56.7483C82.5275 59.4554 81.2409 62.2995 78.8616 63.8067C68.5266 70.3533 60.61 80.6522 54.6122 91.6999Z" fill="#E7344C"/>
</svg>
