<svg width="67" height="53" fill="none" xmlns="http://www.w3.org/2000/svg"><path d="M61.636 0H13.364C10.387 0 8 2.358 8 5.3v31.8c0 1.406.565 2.754 1.571 3.748a5.397 5.397 0 003.793 1.552h18.772v5.3h-5.363V53h21.454v-5.3h-5.363v-5.3h18.772a5.397 5.397 0 003.793-1.552A5.269 5.269 0 0067 37.1V5.3C67 2.358 64.586 0 61.636 0z" fill="#F8BB0A"/><path d="M9.5 51.545c-.581 0-1.14-.23-1.55-.639a2.177 2.177 0 010-3.085 2.198 2.198 0 013.1 0 2.176 2.176 0 010 3.085c-.41.41-.969.64-1.55.64zM15.346 21H3.654c-.97 0-1.899.383-2.584 1.065A3.627 3.627 0 000 24.636v24.728c0 .964.385 1.889 1.07 2.57A3.663 3.663 0 003.654 53h11.692c.97 0 1.899-.383 2.584-1.065A3.627 3.627 0 0019 49.364V24.636c0-.964-.385-1.889-1.07-2.57A3.663 3.663 0 0015.346 21z" fill="#FF3D4B"/><path d="M19 42V24.58c0-.95-.39-1.86-1.084-2.531A3.767 3.767 0 0015.298 21H8v15.75c0 1.392.58 2.728 1.611 3.712A5.635 5.635 0 0013.5 42H19z" fill="#FF8017"/></svg>