<svg width="46" height="45" viewBox="0 0 46 45" fill="none" xmlns="http://www.w3.org/2000/svg">
<path d="M21.4421 1.3738L14.6107 12.5414C14.5001 12.7223 14.3223 12.8517 14.1165 12.9012L1.40194 15.958C0.0753517 16.277 -0.446907 17.887 0.43903 18.9261L8.93157 28.885C9.06901 29.0461 9.13709 29.2556 9.12039 29.467L8.09384 42.5237C7.98664 43.8862 9.35403 44.8814 10.6146 44.3583L22.6945 39.3456C22.8901 39.2645 23.11 39.2645 23.3056 39.3456L35.3854 44.3583C36.646 44.8814 38.0134 43.8862 37.9062 42.5237L36.8797 29.467C36.863 29.2556 36.9308 29.0461 37.0685 28.885L45.5608 18.9261C46.447 17.887 45.9247 16.277 44.5981 15.958L31.8835 12.9012C31.6778 12.8517 31.4998 12.7223 31.3892 12.5414L24.5579 1.3738C23.8452 0.208733 22.1549 0.208733 21.4421 1.3738Z" fill="#FBBA06"/>
</svg>
