<svg width="66" height="66" fill="none" xmlns="http://www.w3.org/2000/svg"><circle r="31.5" transform="matrix(-1 0 0 1 34.5 34.5)" fill="#FF3D4B"/><path d="M10.5 0l14 14v5.25l8.925 8.925C33.95 28 34.475 28 35 28a7 7 0 11-7 7c0-.525 0-1.05.175-1.575L19.25 24.5H14l-14-14h10.5V0z" fill="#FF8017"/><path d="M8 18.531A31.756 31.756 0 0118.531 8l5.917 5.917v5.266l8.952 8.951c.526-.175 1.053-.175 1.58-.175a7.02 7.02 0 11-7.021 7.02c0-.526 0-1.053.175-1.58l-8.951-8.95h-5.266L8 18.53z" fill="#F8BB0A"/></svg>