<svg width="52" height="14" viewBox="0 0 52 14" fill="none" xmlns="http://www.w3.org/2000/svg">
<g clip-path="url(#clip0)">
<path d="M0.456631 0.87202H11.2853C11.5375 0.87202 11.7419 1.08531 11.7419 1.34841V3.57C11.7419 3.86592 11.6189 4.14611 11.4046 4.34L5.3491 9.625H11.2853C11.5375 9.625 11.7419 9.8344 11.7419 10.0975V12.6479C11.7419 12.9111 11.5375 13.1243 11.2853 13.1243H0.456631C0.204441 13.1243 0 12.9111 0 12.6479V10.43C0 10.1341 0.123085 9.85389 0.337362 9.66L6.39283 4.375H0.456631C0.204441 4.375 0 4.15685 0 3.89375V1.34841C0 1.08531 0.204441 0.87202 0.456631 0.87202ZM19.2903 0.4375C20.5424 0.4375 21.6587 0.731247 22.5906 1.26805C23.5225 1.80485 24.27 2.58471 24.7845 3.55693C25.2991 4.52915 25.5806 5.69374 25.5806 7C25.5806 8.30626 25.2991 9.47085 24.7845 10.4431C24.27 11.4153 23.5225 12.1951 22.5906 12.732C21.6587 13.2688 20.5424 13.5625 19.2903 13.5625C18.0382 13.5625 16.922 13.2688 15.9901 12.732C15.0582 12.1951 14.3106 11.4153 13.7961 10.4431C13.2816 9.47085 13 8.30626 13 7C13 5.69374 13.2816 4.52915 13.7961 3.55693C14.3106 2.58471 15.0582 1.80485 15.9901 1.26805C16.922 0.731247 18.0382 0.4375 19.2903 0.4375ZM19.2903 3.9375C18.6914 3.9375 18.1656 4.06949 17.7307 4.31491C17.2958 4.56033 16.9518 4.91918 16.7166 5.37288C16.4814 5.82658 16.3548 6.37515 16.3548 7C16.3548 7.62485 16.4814 8.17342 16.7166 8.62712C16.9518 9.08082 17.2958 9.43967 17.7307 9.68509C18.1656 9.93051 18.6914 10.0625 19.2903 10.0625C19.8893 10.0625 20.4151 9.93051 20.85 9.68509C21.2848 9.43967 21.6288 9.08082 21.864 8.62712C22.0993 8.17342 22.2258 7.62485 22.2258 7C22.2258 6.37515 22.0993 5.82658 21.864 5.37288C21.6288 4.91918 21.2848 4.56033 20.85 4.31491C20.4151 4.06949 19.8893 3.9375 19.2903 3.9375ZM32.7097 0.4375C33.9618 0.4375 35.078 0.731247 36.0099 1.26805C36.9418 1.80485 37.6894 2.58471 38.2039 3.55693C38.7184 4.52915 39 5.69374 39 7C39 8.30626 38.7184 9.47085 38.2039 10.4431C37.6894 11.4153 36.9418 12.1951 36.0099 12.732C35.078 13.2688 33.9618 13.5625 32.7097 13.5625C31.4576 13.5625 30.3413 13.2688 29.4094 12.732C28.4775 12.1951 27.73 11.4153 27.2155 10.4431C26.7009 9.47085 26.4194 8.30626 26.4194 7C26.4194 5.69374 26.7009 4.52915 27.2155 3.55693C27.73 2.58471 28.4775 1.80485 29.4094 1.26805C30.3413 0.731247 31.4576 0.4375 32.7097 0.4375ZM32.7097 3.9375C32.1107 3.9375 31.5849 4.06949 31.15 4.31491C30.7152 4.56033 30.3712 4.91918 30.136 5.37288C29.9007 5.82658 29.7742 6.37515 29.7742 7C29.7742 7.62485 29.9007 8.17342 30.136 8.62712C30.3712 9.08082 30.7152 9.43967 31.15 9.68509C31.5849 9.93051 32.1107 10.0625 32.7097 10.0625C33.3086 10.0625 33.8344 9.93051 34.2693 9.68509C34.7042 9.43967 35.0482 9.08082 35.2834 8.62712C35.5186 8.17342 35.6452 7.62485 35.6452 7C35.6452 6.37515 35.5186 5.82658 35.2834 5.37288C35.0482 4.91918 34.7042 4.56033 34.2693 4.31491C33.8344 4.06949 33.3086 3.9375 32.7097 3.9375ZM52.0014 1.34992V12.6478C52.0014 12.9109 51.797 13.1242 51.5448 13.1242H49.4168C49.1331 13.1242 48.8646 12.9958 48.6787 12.7723L43.6129 6.45553V12.6478C43.6129 12.9109 43.4038 13.1242 43.1516 13.1242H40.7133C40.4611 13.1242 40.2566 12.9109 40.2566 12.6478V1.34992C40.2566 1.08681 40.4611 0.87351 40.7133 0.87351H42.8413C43.125 0.87351 43.3935 1.00195 43.5794 1.22555L48.6452 7.54447V1.34992C48.6452 1.08681 48.8459 0.87351 49.0981 0.87351H51.5448C51.797 0.87351 52.0014 1.08681 52.0014 1.34992Z" fill="white"/>
</g>
<defs>
<clipPath id="clip0">
<rect width="52" height="14" fill="white"/>
</clipPath>
</defs>
</svg>
