<svg width="56" height="54" fill="none" xmlns="http://www.w3.org/2000/svg"><path opacity=".3" d="M0 27.395v-2.013l6.838-5.896c5.135-4.458 9.741-8.58 13.82-12.367C24.737 3.284 27.28.91 28.288 0l2.735 2.445L11.23 26.748 25.265 52.13 22.242 54c-5.423-6.903-8.638-10.953-9.646-12.152C11.59 40.602 7.39 35.784 0 27.395zm26.273.144v-2.373C36.157 16.346 45.154 7.957 53.264 0L56 2.373 36.997 26.605l13.1 25.454-2.879 1.87-11.084-14.526a178.135 178.135 0 00-4.823-6.04 147.77 147.77 0 00-5.038-5.824z" fill="#DB2883"/></svg>