<svg width="22" height="20" viewBox="0 0 22 20" fill="none" xmlns="http://www.w3.org/2000/svg">
<path d="M8.70075 0.5H13.0511C13.628 0.5 14.1813 0.710714 14.5892 1.08579C14.9971 1.46086 15.2263 1.96957 15.2263 2.5V4.5H19.5767C20.1536 4.5 20.7068 4.71071 21.1148 5.08579C21.5227 5.46086 21.7519 5.96957 21.7519 6.5V17.5C21.7519 18.0304 21.5227 18.5391 21.1148 18.9142C20.7068 19.2893 20.1536 19.5 19.5767 19.5H2.17519C1.59829 19.5 1.04502 19.2893 0.637097 18.9142C0.229171 18.5391 0 18.0304 0 17.5V6.5C0 5.96957 0.229171 5.46086 0.637097 5.08579C1.04502 4.71071 1.59829 4.5 2.17519 4.5H6.52556V2.5C6.52556 1.96957 6.75473 1.46086 7.16266 1.08579C7.57059 0.710714 8.12385 0.5 8.70075 0.5ZM13.0511 4.5V2.5H8.70075V4.5H13.0511ZM9.24454 16L16.4118 9.41L14.8783 8L9.24454 13.17L6.97147 11.09L5.43797 12.5L9.24454 16Z" fill="white"/>
</svg>
