<svg width="23" height="20" viewBox="0 0 23 20" fill="none" xmlns="http://www.w3.org/2000/svg">
<g opacity="0.8">
<path d="M5.78777 13.1V13.937L5.05076 13.5403L1.67666 11.7239L1.56771 11.7087C1.41326 11.7163 1.27358 11.7837 1.16434 11.9009L1.16434 11.9009L1.16236 11.903L0.720041 12.3722L5.61675 16.6505L5.63478 16.6662L5.65123 16.6836C5.7515 16.7898 5.81658 16.928 5.8564 17.0202C5.90304 17.1281 5.94783 17.2536 5.99019 17.3814C6.04114 17.5352 6.09659 17.7177 6.15169 17.899C6.18558 18.0105 6.21934 18.1216 6.25185 18.2254C6.34292 18.516 6.42947 18.7672 6.51194 18.9411C6.5227 18.9637 6.53256 18.9833 6.54143 19H13.3596C13.3652 18.9967 13.3737 18.9913 13.3853 18.9824C13.4313 18.9471 13.4963 18.8798 13.5747 18.7674C13.7313 18.5428 13.8904 18.2127 14.0341 17.8295C14.3254 17.0523 14.5 16.2042 14.5 15.85V11.054C14.5 10.5616 14.2235 10.1774 13.894 10.043L13.8849 10.0393L13.8761 10.0353L8.61791 7.64833L7.39161 7.51403L6.94604 7.46523V7.017V2.1C6.94604 1.93781 6.88275 1.78415 6.77305 1.67233C6.66367 1.56084 6.51738 1.5 6.36691 1.5C6.21643 1.5 6.07014 1.56084 5.96076 1.67233C5.85107 1.78415 5.78777 1.93781 5.78777 2.1V13.1ZM6.59191 19.0818C6.59652 19.0872 6.59632 19.0861 6.59131 19.0811C6.59152 19.0813 6.59172 19.0816 6.59191 19.0818ZM13.3512 19.0042C13.3512 19.0043 13.3516 19.0041 13.3523 19.0038L13.3512 19.0042Z" fill="#F8BB0A" stroke="#F8BB0A"/>
<path d="M12 3.5C11.7239 3.5 11.5 3.72386 11.5 4C11.5 4.27614 11.7239 4.5 12 4.5V3.5ZM22.3536 4.35355C22.5488 4.15829 22.5488 3.84171 22.3536 3.64645L19.1716 0.464466C18.9763 0.269204 18.6597 0.269204 18.4645 0.464466C18.2692 0.659728 18.2692 0.976311 18.4645 1.17157L21.2929 4L18.4645 6.82843C18.2692 7.02369 18.2692 7.34027 18.4645 7.53553C18.6597 7.7308 18.9763 7.7308 19.1716 7.53553L22.3536 4.35355ZM12 4.5H22V3.5H12V4.5Z" fill="#F8BB0A"/>
</g>
</svg>
