<svg width="50" height="59" viewBox="0 0 50 59" fill="none" xmlns="http://www.w3.org/2000/svg">
<path d="M21.4421 8.3738L14.6107 19.5414C14.5001 19.7223 14.3223 19.8517 14.1165 19.9012L1.40194 22.958C0.0753517 23.277 -0.446907 24.887 0.43903 25.9261L8.93157 35.885C9.06901 36.0461 9.13709 36.2556 9.12039 36.467L8.09384 49.5237C7.98664 50.8862 9.35403 51.8814 10.6146 51.3583L22.6945 46.3456C22.8901 46.2645 23.11 46.2645 23.3056 46.3456L35.3854 51.3583C36.646 51.8814 38.0134 50.8862 37.9062 49.5237L36.8797 36.467C36.863 36.2556 36.9308 36.0461 37.0685 35.885L45.5608 25.9261C46.447 24.887 45.9247 23.277 44.5981 22.958L31.8835 19.9012C31.6778 19.8517 31.4998 19.7223 31.3892 19.5414L24.5579 8.3738C23.8452 7.20873 22.1549 7.20873 21.4421 8.3738Z" fill="#F07F25"/>
<path fill-rule="evenodd" clip-rule="evenodd" d="M14.6107 19.5414L21.4421 8.3738C22.1549 7.20873 23.8452 7.20873 24.5579 8.3738L31.3892 19.5414C31.4998 19.7223 31.6778 19.8517 31.8835 19.9012L34 20.4101V50.7834L23.3056 46.3456C23.11 46.2645 22.8901 46.2645 22.6945 46.3456L10.6146 51.3583C9.35403 51.8814 7.98664 50.8862 8.09384 49.5237L9.12039 36.467C9.13709 36.2556 9.069 36.0461 8.93157 35.885L0.43903 25.9261C-0.446911 24.887 0.0753517 23.277 1.40194 22.958L14.1165 19.9012C14.3223 19.8517 14.5001 19.7223 14.6107 19.5414Z" fill="#FBBA06"/>
</svg>
