<svg width="56" height="56" fill="none" xmlns="http://www.w3.org/2000/svg"><path d="M27.687 27.177c0 3.533-1.95 6.6-4.808 8.133C27.623 37.127 31 41.812 31 47.303V49H6v-1.697c0-5.595 3.506-10.352 8.391-12.093-2.758-1.564-4.626-4.576-4.626-8.033 0-5.069 4.012-9.177 8.96-9.177 4.95 0 8.962 4.108 8.962 9.177z" fill="#9400B7"/><path d="M36.554 27.177c0 3.533-2.028 6.6-5 8.133C36.488 37.127 40 41.812 40 47.303V49H14v-1.697c0-5.595 3.646-10.352 8.727-12.093-2.869-1.564-4.811-4.576-4.811-8.033 0-5.069 4.172-9.177 9.319-9.177 5.147 0 9.32 4.108 9.32 9.177z" fill="#DB2883"/><path d="M47.554 16.022c0 3.473-2.028 6.488-5 7.996C47.488 25.804 51 30.41 51 35.808V49H25V35.809c0-5.502 3.646-10.178 8.727-11.89-2.869-1.538-4.811-4.498-4.811-7.897 0-4.983 4.172-9.022 9.319-9.022 5.147 0 9.32 4.04 9.32 9.022z" fill="#F8BB0A"/><path fill-rule="evenodd" clip-rule="evenodd" d="M29.315 18.541c3.818 1.099 6.61 4.607 6.61 8.765 0 3.512-1.992 6.56-4.912 8.085 4.847 1.807 8.297 6.463 8.297 11.922V49H25V35.662c0-5.563 3.582-10.291 8.574-12.021a9.158 9.158 0 01-4.26-5.1z" fill="#FF8017"/></svg>