<svg width="66" height="66" viewBox="0 0 66 66" fill="none" xmlns="http://www.w3.org/2000/svg">
<circle r="31.5" transform="matrix(-1 0 0 1 34.5 34.5)" fill="#FF3D4B"/>
<path d="M10.5 0L24.5 14V19.25L33.425 28.175C33.95 28 34.475 28 35 28C36.8565 28 38.637 28.7375 39.9497 30.0503C41.2625 31.363 42 33.1435 42 35C42 36.8565 41.2625 38.637 39.9497 39.9497C38.637 41.2625 36.8565 42 35 42C33.1435 42 31.363 41.2625 30.0503 39.9497C28.7375 38.637 28 36.8565 28 35C28 34.475 28 33.95 28.175 33.425L19.25 24.5H14L0 10.5H10.5V0Z" fill="#FF8017"/>
<path d="M8 18.5311C10.6221 14.2394 14.2394 10.6221 18.5311 8L24.4482 13.9171V19.1826L33.3996 28.1341C33.9262 27.9585 34.4527 27.9585 34.9793 27.9585C36.8413 27.9585 38.627 28.6982 39.9437 30.0149C41.2603 31.3315 42 33.1173 42 34.9793C42 36.8413 41.2603 38.627 39.9437 39.9437C38.627 41.2603 36.8413 42 34.9793 42C33.1173 42 31.3315 41.2603 30.0149 39.9437C28.6982 38.627 27.9585 36.8413 27.9585 34.9793C27.9585 34.4527 27.9585 33.9262 28.1341 33.3996L19.1826 24.4482H13.9171L8 18.5311Z" fill="#F8BB0A"/>
</svg>
