<svg width="57" height="56" viewBox="0 0 57 56" fill="none" xmlns="http://www.w3.org/2000/svg">
<path d="M28.5965 9.60131C29.9962 8.79956 31.7206 8.79956 33.1203 9.60131L47.0965 17.6072C48.4962 18.4089 49.3584 19.8906 49.3584 21.4941V37.5059C49.3584 39.1094 48.4962 40.5911 47.0965 41.3928L33.1203 49.3987C31.7206 50.2004 29.9962 50.2004 28.5965 49.3987L14.6203 41.3928C13.2206 40.5911 12.3584 39.1094 12.3584 37.5059V21.4941C12.3584 19.8906 13.2206 18.4089 14.6203 17.6072L28.5965 9.60131Z" fill="#F8BB0A"/>
<path d="M14.3356 42.1806C13.614 42.6057 12.7573 42.7222 11.9539 42.5047C11.1504 42.2871 10.4661 41.7533 10.0515 41.0205C9.63687 40.2877 9.52587 39.4161 9.74293 38.5974C9.95999 37.7787 10.4873 37.08 11.2089 36.6549C11.9305 36.2298 12.7873 36.1132 13.5907 36.3308C14.3941 36.5484 15.0784 37.0822 15.4931 37.815C15.9077 38.5477 16.0187 39.4193 15.8016 40.238C15.5846 41.0567 15.0572 41.7555 14.3356 42.1806ZM18.8951 32.1271C15.9583 29.5655 11.6328 29.0376 8.08219 31.1292C5.9174 32.4044 4.33541 34.5007 3.68424 36.9568C3.03307 39.413 3.36605 42.0278 4.60994 44.226C5.85383 46.4243 7.90673 48.0259 10.317 48.6786C12.7273 49.3313 15.2976 48.9815 17.4624 47.7063C21.013 45.6147 22.7276 41.5286 22.0218 37.6528L27.9395 34.1668L29.4954 36.9164C30.363 38.4496 32.2844 38.9749 33.787 38.0897C35.2897 37.2045 35.8045 35.2441 34.937 33.7109L33.3811 30.9613C34.8766 30.0803 35.4019 28.1215 34.5385 26.5957C33.6751 25.0698 31.7628 24.547 30.2673 25.4279L18.8951 32.1271Z" fill="#DB2883"/>
<path fill-rule="evenodd" clip-rule="evenodd" d="M20.3372 44.8163C21.8819 42.726 22.5054 40.0683 22.029 37.5042L27.9621 34.0787L29.522 36.7806C30.3919 38.2871 32.3183 38.8033 33.8248 37.9335C35.3314 37.0637 35.8476 35.1373 34.9778 33.6307L33.4178 30.9288C34.9172 30.0631 35.4439 28.1384 34.5783 26.639C33.7126 25.1396 31.7953 24.6259 30.296 25.4916L18.8941 32.0744C17.0468 30.4952 14.6515 29.7026 12.2439 29.8387V36.1437C12.6834 36.0697 13.1376 36.0888 13.5759 36.2051C14.3814 36.4189 15.0675 36.9435 15.4832 37.6636C15.8989 38.3836 16.0102 39.2401 15.7926 40.0445C15.6266 40.6581 15.2797 41.2031 14.8035 41.6125L20.3372 44.8163Z" fill="#9400B7"/>
</svg>
