<svg width="57" height="56" fill="none" xmlns="http://www.w3.org/2000/svg"><path d="M28.596 9.601a4.555 4.555 0 014.524 0l13.977 8.006a4.482 4.482 0 012.261 3.887v16.012a4.482 4.482 0 01-2.261 3.887L33.12 49.399a4.555 4.555 0 01-4.523 0L14.62 41.393a4.482 4.482 0 01-2.262-3.887V21.494c0-1.603.863-3.085 2.262-3.887l13.976-8.006z" fill="#F8BB0A"/><path d="M14.336 42.18a3.095 3.095 0 01-2.382.325 3.128 3.128 0 01-1.902-1.485 3.24 3.24 0 01-.31-2.423 3.205 3.205 0 011.467-1.942 3.094 3.094 0 012.382-.324 3.128 3.128 0 011.902 1.484c.415.733.526 1.604.309 2.423a3.205 3.205 0 01-1.466 1.943zm4.56-10.053a9.259 9.259 0 00-10.814-.998 9.616 9.616 0 00-4.398 5.828 9.718 9.718 0 00.926 7.269 9.384 9.384 0 005.707 4.453c2.41.652 4.98.302 7.145-.973 3.551-2.091 5.266-6.177 4.56-10.053l5.918-3.486 1.555 2.75c.868 1.533 2.79 2.058 4.292 1.173 1.503-.886 2.017-2.846 1.15-4.38l-1.556-2.749c1.496-.88 2.02-2.84 1.157-4.365-.863-1.526-2.775-2.049-4.27-1.168l-11.373 6.7z" fill="#DB2883"/><path fill-rule="evenodd" clip-rule="evenodd" d="M20.337 44.816a9.434 9.434 0 001.692-7.312l5.933-3.425 1.56 2.702a3.15 3.15 0 005.456-3.15l-1.56-2.702c1.5-.866 2.026-2.79 1.16-4.29a3.135 3.135 0 00-4.282-1.147l-11.402 6.582a9.431 9.431 0 00-6.65-2.235v6.305a3.127 3.127 0 013.549 3.9 3.155 3.155 0 01-.99 1.569l5.534 3.203z" fill="#9400B7"/></svg>