<svg width="22" height="20" fill="none" xmlns="http://www.w3.org/2000/svg"><path d="M8.7.5h4.351c.577 0 1.13.21 1.538.586.408.375.637.884.637 1.414v2h4.35c.578 0 1.13.21 1.539.586.408.375.637.884.637 1.414v11c0 .53-.23 1.04-.637 1.414a2.276 2.276 0 01-1.538.586H2.175c-.577 0-1.13-.21-1.538-.586A1.922 1.922 0 010 17.5v-11c0-.53.23-1.04.637-1.414A2.276 2.276 0 012.175 4.5h4.35v-2c0-.53.23-1.04.638-1.414A2.276 2.276 0 018.7.5zm4.351 4v-2h-4.35v2h4.35zM9.245 16l7.167-6.59L14.878 8l-5.633 5.17-2.274-2.08-1.533 1.41L9.245 16z" fill="#fff"/></svg>