<svg width="56" height="54" viewBox="0 0 56 54" fill="none" xmlns="http://www.w3.org/2000/svg">
<path opacity="0.3" d="M0 27.3955V25.3822L6.83805 19.486C11.9726 15.028 16.5793 10.9055 20.6581 7.11851C24.7369 3.28362 27.2802 0.910786 28.2879 0L31.0231 2.44474L11.2288 26.7483L25.2648 52.1305L22.2416 54C16.8192 47.0972 13.6041 43.0466 12.5964 41.8482C11.5887 40.6019 7.38989 35.7843 0 27.3955ZM26.2725 27.5393V25.1664C36.1577 16.3462 45.1551 7.95739 53.2648 0L56 2.37284L36.9974 26.6045L50.0977 52.0586L47.2185 53.9281L36.1337 39.4035C34.4062 37.1505 32.7986 35.1372 31.3111 33.3635C29.8235 31.5419 28.144 29.6005 26.2725 27.5393Z" fill="#DB2883"/>
</svg>
