<svg width="69" height="23" viewBox="0 0 69 23" fill="none" xmlns="http://www.w3.org/2000/svg">
<path fill-rule="evenodd" clip-rule="evenodd" d="M3.1913 0.180029C1.85269 0.552789 0.908213 1.27304 0.571199 2.1781C0.495448 2.38167 0.394877 2.65295 0.347726 2.78097C0.242602 3.06628 0.302293 4.6074 0.43782 5.10864C0.492271 5.30982 0.571801 5.60909 0.614486 5.77369C0.657256 5.93829 0.73335 6.20012 0.783507 6.35561C0.83375 6.5111 0.913452 6.75797 0.960689 6.90428C1.00793 7.05059 1.08522 7.29 1.13246 7.43632C1.25098 7.80349 1.38436 8.22367 1.47016 8.50039C1.50984 8.62842 1.60749 8.89776 1.68728 9.09894C1.76698 9.30012 1.94201 9.74903 2.07625 10.0965C2.40184 10.9393 4.30996 15.3769 4.63563 16.0487C4.77751 16.3413 4.97892 16.7453 5.08327 16.9465C5.18762 17.1477 5.32684 17.425 5.3928 17.5626C6.95548 20.8274 9.20619 22.0536 12.9417 21.6752C14.6703 21.5 14.857 21.4766 16.1838 21.2672C16.6622 21.1917 17.287 21.0948 17.8586 21.0075C18.083 20.9732 18.4405 20.9115 18.653 20.8703C18.8656 20.8291 19.2134 20.7693 19.426 20.7373C19.6386 20.7053 19.9864 20.6455 20.199 20.6043C20.4115 20.5631 20.7594 20.5033 20.972 20.4713C21.1845 20.4393 21.5324 20.3794 21.7449 20.3383C21.9575 20.2971 22.3053 20.2373 22.5179 20.2053C22.7304 20.1733 23.0687 20.1153 23.2694 20.0764C23.4701 20.0375 23.7794 19.9795 23.9565 19.9476C24.1336 19.9156 24.3365 19.8732 24.4074 19.8535C24.4782 19.8337 24.7199 19.8006 24.9444 19.7799L25.3525 19.7423L25.975 20.2238C26.3174 20.4886 26.7327 20.779 26.898 20.8691C27.0634 20.9592 27.3725 21.1693 27.5851 21.3358C27.7977 21.5024 28.1069 21.7113 28.2722 21.8001C28.4375 21.8888 28.6308 22.0095 28.7016 22.0684C29.07 22.3747 30.5284 22.9985 30.8759 22.9985C31.2179 22.9985 31.6684 22.3497 31.483 22.1244C31.4422 22.0747 31.3816 21.8396 31.3483 21.6019C31.2261 20.7277 31.0565 20.1871 30.4245 18.6573C30.194 18.0994 30.1891 18.0612 30.3141 17.7927C30.3861 17.6382 30.4779 17.3697 30.518 17.1959C30.5582 17.0221 30.6315 16.7229 30.6809 16.5309C30.7303 16.3389 30.8076 16.0097 30.8527 15.7993C30.8978 15.589 30.975 15.2299 31.0243 15.0013C31.0737 14.7727 31.151 14.3536 31.1961 14.0702C31.2412 13.7867 31.3182 13.3078 31.3672 13.0061C31.9456 9.43811 31.9904 4.93899 31.4597 3.7141C30.9581 2.55638 29.7973 1.93416 27.4778 1.57969C27.2533 1.54544 26.8669 1.48605 26.6189 1.44781C26.371 1.40957 25.9554 1.35111 25.6956 1.31786C25.4358 1.28461 25.03 1.22708 24.7938 1.19004C23.701 1.01846 23.3791 0.973499 22.8185 0.913844C22.4878 0.878663 21.9467 0.819407 21.6161 0.782231C18.207 0.398564 11.6853 0.0660396 6.75794 0.0245405L3.83784 0L3.1913 0.180029ZM13.7258 5.15852C14.2257 5.96795 15.4488 7.96709 16.0654 8.98256C16.4126 9.55417 16.6284 9.7058 16.7281 9.44809C16.7528 9.38405 17.1141 8.77805 17.5307 8.10137C19.1623 5.45181 19.6757 4.60527 19.7191 4.49347C19.7606 4.38627 19.9512 4.37709 22.1287 4.37709H24.4932L24.4896 4.52672C24.4862 4.67111 23.9613 5.4816 22.0881 8.23438C21.6027 8.94764 20.7955 10.1447 20.2943 10.8946L19.3831 12.2579L19.2972 16.9798H13.7146L13.6288 12.1249L13.123 11.3934C12.8449 10.991 12.2026 10.0483 11.6957 9.29845C11.1887 8.54861 10.3893 7.36649 9.91921 6.67151C9.44907 5.97653 8.94235 5.24332 8.79308 5.04214C8.64381 4.84096 8.521 4.60899 8.52014 4.52672L8.51859 4.37709H13.2432L13.7258 5.15852ZM38.2852 13.2056C38.2499 13.233 37.9632 13.2705 37.6482 13.2888L37.0754 13.322L37.0922 13.6878C37.1181 14.2552 37.3135 15.2303 37.5385 15.9157C37.6614 16.2902 37.7927 16.7047 37.8807 16.9964C37.997 17.3821 38.8184 19.2543 38.9725 19.485C39.0617 19.6187 39.0905 19.7635 39.0545 19.8981C39.024 20.0122 38.9623 20.2776 38.9176 20.4879C38.7045 21.4877 38.6657 21.6595 38.5753 22.0009C38.5221 22.2021 38.472 22.5013 38.464 22.6659L38.4496 22.9652L39.7285 22.9837C41.2273 23.0053 41.2851 22.9862 41.3578 22.4448C41.3833 22.2555 41.4446 21.9136 41.4942 21.685C41.7325 20.5869 41.767 20.4156 41.8125 20.1066C41.8547 19.8204 42.2083 19.281 42.4454 19.1412C42.5659 19.0702 44.0714 17.2701 44.6703 16.481C45.0173 16.0238 45.4266 15.4851 45.5798 15.2839C46.2294 14.431 46.7066 13.5621 46.6207 13.3887C46.5286 13.2029 44.0109 13.089 43.9409 13.2675C43.7629 13.7214 42.2636 15.9601 41.4436 16.9964C41.0857 17.4486 40.861 17.5279 40.7835 17.2292C40.7574 17.1286 40.6927 16.9116 40.6396 16.747C40.5467 16.4588 40.4971 16.2779 40.294 15.4834C40.1773 15.0269 40.0464 14.3099 39.9844 13.7875C39.9186 13.233 38.7604 12.8364 38.2852 13.2056ZM56.0815 13.2721C55.9229 13.4141 55.8462 13.6043 55.7462 14.1034C55.704 14.3137 55.6309 14.6654 55.5837 14.8849C55.5365 15.1043 55.461 15.4559 55.4159 15.6663C55.3708 15.8767 55.2917 16.2133 55.2402 16.4145C55.1886 16.6157 55.1095 16.9523 55.0644 17.1627C55.0193 17.373 54.9439 17.7246 54.8966 17.9441C54.8494 18.1636 54.7721 18.5227 54.7248 18.7422C54.6776 18.9616 54.6003 19.3207 54.5531 19.5402C54.5058 19.7597 54.4285 20.1188 54.3813 20.3383C54.3341 20.5577 54.2568 20.9169 54.2095 21.1363C54.1623 21.3558 54.0827 21.7224 54.0326 21.951C53.9825 22.1797 53.9343 22.5013 53.9253 22.6659L53.9089 22.9652H60.338L60.4171 22.7657C60.5704 22.3788 60.6687 21.8964 60.6813 21.4689L60.6939 21.0366L60.0927 20.9831C59.762 20.9536 59.0084 20.9088 58.4179 20.8833L57.3443 20.8371L57.362 20.6043C57.381 20.3543 57.4939 19.7973 57.6449 19.2077C57.6965 19.0065 57.7756 18.6699 57.8207 18.4595C57.8658 18.2492 57.9412 17.8975 57.9885 17.6781C58.0357 17.4586 58.113 17.0995 58.1603 16.88C58.2075 16.6605 58.2848 16.3014 58.332 16.082C58.3793 15.8625 58.4548 15.5109 58.4998 15.3005C58.5449 15.0902 58.6238 14.7535 58.675 14.5523C58.8607 13.8229 58.9191 13.3243 58.8285 13.2389C58.6757 13.0946 56.2469 13.124 56.0815 13.2721ZM63.5475 13.3251C63.389 13.4479 63.316 13.5896 63.2825 13.8405C63.2569 14.0308 63.1955 14.3736 63.1459 14.6022C63.0963 14.8309 63.0171 15.1974 62.9698 15.4169C62.9226 15.6364 62.8453 15.9955 62.7981 16.215C62.7508 16.4344 62.6735 16.7936 62.6263 17.013C62.5791 17.2325 62.5036 17.5841 62.4585 17.7945C62.4134 18.0048 62.3343 18.3415 62.2827 18.5426C62.2312 18.7438 62.1521 19.0805 62.107 19.2908C62.0619 19.5012 61.9864 19.8528 61.9392 20.0723C61.892 20.2917 61.8147 20.6508 61.7674 20.8703C61.7202 21.0898 61.6398 21.4564 61.5887 21.685C61.5377 21.9136 61.4893 22.2952 61.4814 22.5329L61.4668 22.9652H67.9053L67.9753 22.6992C68.0138 22.5529 68.0858 22.2835 68.1351 22.1007C68.1844 21.9178 68.2309 21.6035 68.2383 21.4024L68.2518 21.0366L67.6506 20.9831C67.3199 20.9536 66.5663 20.9088 65.9758 20.8833L64.9022 20.8371L64.9186 20.5378C64.9276 20.3732 64.9759 20.0515 65.0259 19.8229C65.076 19.5943 65.1556 19.2276 65.2029 19.0082C65.2501 18.7887 65.3274 18.4296 65.3746 18.2101C65.4219 17.9906 65.4973 17.639 65.5424 17.4287C65.5875 17.2183 65.6666 16.8817 65.7182 16.6805C65.7697 16.4793 65.8488 16.1427 65.8939 15.9323C65.939 15.722 66.0145 15.3704 66.0617 15.1509C66.2232 14.4006 66.3243 13.9205 66.3742 13.6678C66.4806 13.1285 64.1642 12.8476 63.5475 13.3251ZM47.1527 13.4377C47.0937 13.5203 47.0148 13.7601 46.9774 13.9704C46.94 14.1807 46.8706 14.5324 46.8234 14.7519C46.7762 14.9713 46.6989 15.3305 46.6516 15.5499C46.6044 15.7694 46.5271 16.1285 46.4799 16.348C46.4326 16.5674 46.3553 16.9266 46.3081 17.146C46.2609 17.3655 46.1836 17.7246 46.1363 17.9441C46.0891 18.1636 46.0118 18.5227 45.9646 18.7422C45.9173 18.9616 45.84 19.3207 45.7928 19.5402C45.7455 19.7597 45.6701 20.1113 45.625 20.3216C45.5799 20.532 45.5008 20.8687 45.4492 21.0698C45.2595 21.8104 45.1789 22.2424 45.1639 22.5994L45.1486 22.9652L52.0554 23L52.1613 22.8496C52.2999 22.653 52.4122 22.1587 52.4635 21.5199L52.5048 21.0058L48.4123 20.9701L48.4276 20.6043C48.445 20.188 48.5694 19.536 48.6876 19.2409L48.7676 19.0414L49.7064 18.9902C50.2228 18.9619 51.0703 18.9225 51.5896 18.9026C52.6325 18.8625 52.7857 18.8088 52.8659 18.4553C52.8924 18.3387 52.9575 18.0788 53.0106 17.8776C53.0637 17.6764 53.1135 17.3771 53.1215 17.2125L53.136 16.9133L52.363 16.9314C51.9379 16.9413 51.0683 16.9562 50.4306 16.9646L49.2711 16.9798L49.2875 16.6805C49.3076 16.3102 49.4396 15.65 49.5467 15.3837L49.627 15.1841L51.677 15.1663C54.2326 15.144 54.1083 15.2116 54.1512 13.8208L54.1666 13.322L47.2599 13.2872L47.1527 13.4377Z" fill="white"/>
</svg>
