<svg width="56" height="56" viewBox="0 0 56 56" fill="none" xmlns="http://www.w3.org/2000/svg">
<path d="M27.6867 27.1766C27.6867 30.7097 25.737 33.7765 22.8793 35.3101C27.6229 37.1274 31 41.8116 31 47.3035V49H6L6 47.3035C6 41.7077 9.50608 36.9505 14.3913 35.2101C11.6327 33.6457 9.76506 30.6345 9.76506 27.1766C9.76506 22.1085 13.777 18 18.7259 18C23.6748 18 27.6867 22.1085 27.6867 27.1766Z" fill="#9400B7"/>
<path d="M36.5542 27.1766C36.5542 30.7097 34.5265 33.7765 31.5544 35.3101C36.4878 37.1274 40 41.8116 40 47.3035V49H14L14 47.3035C14 41.7077 17.6463 36.9505 22.7269 35.2101C19.858 33.6457 17.9157 30.6345 17.9157 27.1766C17.9157 22.1085 22.088 18 27.2349 18C32.3818 18 36.5542 22.1085 36.5542 27.1766Z" fill="#DB2883"/>
<path d="M47.5542 16.0217C47.5542 19.4951 45.5265 22.5101 42.5544 24.0178C47.4878 25.8044 51 30.4095 51 35.8087V49H25V35.8087C25 30.3074 28.6463 25.6305 33.7269 23.9195C30.858 22.3815 28.9157 19.4212 28.9157 16.0217C28.9157 11.0391 33.088 7 38.2349 7C43.3818 7 47.5542 11.0391 47.5542 16.0217Z" fill="#F8BB0A"/>
<path fill-rule="evenodd" clip-rule="evenodd" d="M29.3146 18.541C33.1328 19.6396 35.9251 23.1479 35.9251 27.306C35.9251 30.8181 33.933 33.8666 31.0132 35.3911C35.8598 37.1976 39.3103 41.8539 39.3103 47.3131V48.9995H25V35.6619C25 30.0994 28.5823 25.3706 33.5736 23.6405C31.5822 22.5418 30.0452 20.725 29.3146 18.541Z" fill="#FF8017"/>
</svg>
