<svg width="67" height="53" viewBox="0 0 67 53" fill="none" xmlns="http://www.w3.org/2000/svg">
<path d="M61.6364 0H13.3636C10.3868 0 8 2.3585 8 5.3V37.1C8 38.5056 8.5651 39.8537 9.57097 40.8477C10.5768 41.8416 11.9411 42.4 13.3636 42.4H32.1364V47.7H26.7727V53H48.2273V47.7H42.8636V42.4H61.6364C63.0589 42.4 64.4231 41.8416 65.429 40.8477C66.4349 39.8537 67 38.5056 67 37.1V5.3C67 2.3585 64.5864 0 61.6364 0Z" fill="#F8BB0A"/>
<path d="M9.5 51.5455C8.91856 51.5455 8.36094 51.3156 7.9498 50.9064C7.53867 50.4972 7.30769 49.9423 7.30769 49.3636C7.30769 48.785 7.53867 48.23 7.9498 47.8209C8.36094 47.4117 8.91856 47.1818 9.5 47.1818C10.0814 47.1818 10.6391 47.4117 11.0502 47.8209C11.4613 48.23 11.6923 48.785 11.6923 49.3636C11.6923 49.9423 11.4613 50.4972 11.0502 50.9064C10.6391 51.3156 10.0814 51.5455 9.5 51.5455ZM15.3462 21H3.65385C2.68479 21 1.75542 21.3831 1.07019 22.0651C0.384958 22.747 0 23.6719 0 24.6364V49.3636C0 50.3281 0.384958 51.253 1.07019 51.9349C1.75542 52.6169 2.68479 53 3.65385 53H15.3462C16.3152 53 17.2446 52.6169 17.9298 51.9349C18.615 51.253 19 50.3281 19 49.3636V24.6364C19 23.6719 18.615 22.747 17.9298 22.0651C17.2446 21.3831 16.3152 21 15.3462 21Z" fill="#FF3D4B"/>
<path d="M19 42V24.5796C19 23.6301 18.6099 22.7198 17.9157 22.0485C17.2215 21.3772 16.2799 21 15.2981 21H8V36.75C8 38.1424 8.57941 39.4777 9.61099 40.4622C10.6424 41.4469 12.0412 42 13.5 42H19Z" fill="#FF8017"/>
</svg>
