<svg width="56" height="56" viewBox="0 0 56 56" fill="none" xmlns="http://www.w3.org/2000/svg">
<path d="M44.9436 39.9876C46.9096 37.2088 48.0617 33.8342 48.0617 30.1956C48.0617 20.6987 40.2129 13 30.5309 13C20.8488 13 13 20.6987 13 30.1956C13 39.6925 20.8488 47.3912 30.5309 47.3912C34.3637 47.3912 37.9092 46.1847 40.7943 44.1378L47.9419 51.1488C49.099 52.2837 50.9751 52.2837 52.1322 51.1488C53.2893 50.0138 53.2893 48.1736 52.1322 47.0386L44.9436 39.9876Z" fill="#DB2883"/>
<path d="M12.1707 27C10.4196 27 9 28.3431 9 30C9 31.6569 10.4196 33 12.1707 33H30.8293C32.5804 33 34 31.6569 34 30C34 28.3431 32.5804 27 30.8293 27H12.1707Z" fill="#FF3D4B"/>
<path fill-rule="evenodd" clip-rule="evenodd" d="M9 38C9 36.3431 10.4551 35 12.25 35H19.75C21.5449 35 23 36.3431 23 38C23 39.6569 21.5449 41 19.75 41H12.25C10.4551 41 9 39.6569 9 38Z" fill="#FF3D4B"/>
<path fill-rule="evenodd" clip-rule="evenodd" d="M9 46C9 44.3431 10.4196 43 12.1707 43H25.8293C27.5804 43 29 44.3431 29 46C29 47.6569 27.5804 49 25.8293 49H12.1707C10.4196 49 9 47.6569 9 46Z" fill="#FF3D4B"/>
<path fill-rule="evenodd" clip-rule="evenodd" d="M28.819 47.0016C28.9362 46.6884 29 46.3512 29 46C29 44.3431 27.5804 43 25.8293 43H19.3101C21.9369 45.1756 25.2162 46.617 28.819 47.0016ZM17.2582 41H19.8293C21.5804 41 23 39.6569 23 38C23 36.3431 21.5804 35 19.8293 35H13.8429C14.5705 37.2288 15.7431 39.2624 17.2582 41ZM13 29.681C13 28.7693 13.0714 27.8739 13.209 27H30.8293C32.5804 27 34 28.3431 34 30C34 31.6569 32.5804 33 30.8293 33H13.3219C13.1106 31.9256 13 30.816 13 29.681Z" fill="#F8BB0A"/>
</svg>
