<svg width="62" height="24" viewBox="0 0 62 24" fill="none" xmlns="http://www.w3.org/2000/svg">
<path fill-rule="evenodd" clip-rule="evenodd" d="M32.659 18.6455H31.5019L31.4965 5.95769H24.7321V7.19969C24.7321 11.072 24.5928 15.5535 23.2632 18.6455H22.3658V23.2183H24.3892V20.495H30.6346V23.2177H32.6585V18.645L32.659 18.6455ZM41.6462 17.8231C41.0676 18.2281 40.0557 18.8059 38.7839 18.8059C36.9914 18.8059 36.0662 17.072 36.0662 13.778H42.1374V12.5354C42.1374 7.59443 40.5474 5.77355 38.1185 5.77355C35.0253 5.77355 33.724 9.18311 33.724 13.8644C33.724 18.3431 35.5744 20.7413 38.5814 20.7413C40.0267 20.7413 41.2412 20.279 42.1664 19.5571L41.6462 17.8231ZM18.5548 5.93933V12.1553H15.2012V5.93987H12.9458V20.5031H15.2012V13.9335H18.5548V20.5031H20.7812V5.93933H18.5548ZM50.4989 20.4977H52.9562L48.8221 12.7822L52.436 5.93393H50.1517L46.6535 12.6666V5.93393H44.3982V20.4977H46.6535V13.2439L50.4989 20.4966V20.4977ZM61.4703 19.5862L60.9496 17.9101C60.4289 18.3723 59.5905 18.8059 58.4923 18.8059C56.6708 18.8059 55.803 16.7253 55.803 13.0846C55.803 9.41477 56.9601 7.59443 58.5785 7.59443C59.5037 7.59443 60.371 8.08583 60.9785 8.60585L61.2967 6.46745C60.6603 6.06299 59.9087 5.71631 58.6074 5.71631C55.196 5.71631 53.4324 8.63447 53.4324 13.2002C53.4324 18.1703 55.3117 20.6846 58.4344 20.6846C59.764 20.6846 60.6898 20.251 61.4698 19.5862H61.4703ZM29.3017 18.6968H25.4274C26.6408 15.6053 26.7855 11.126 26.7855 8.06315V7.80341H29.3012V18.6968H29.3017ZM39.8044 11.9555H36.0748C36.2194 9.35483 36.7107 7.65005 38.0982 7.65005C39.3994 7.65005 39.8044 9.47039 39.8044 11.9555Z" fill="white"/>
<path fill-rule="evenodd" clip-rule="evenodd" d="M7.95054 12.7996V20.5151H10.177V0H6.85179C3.585 0 0.838393 2.22426 0.838393 6.5583C0.838393 9.65034 2.05286 11.3265 3.87429 12.251L0 20.5151H2.57304L6.10018 12.7996H7.95054ZM7.94357 10.9998H6.75857C4.82143 10.9998 3.23089 9.9306 3.23089 6.60744C3.23089 3.16926 4.96554 1.94184 6.75857 1.94184H7.94357V10.9998Z" fill="white"/>
</svg>
