<svg width="56" height="56" fill="none" xmlns="http://www.w3.org/2000/svg"><path d="M44.944 39.988a16.89 16.89 0 003.118-9.792C48.062 20.699 40.212 13 30.53 13 20.849 13 13 20.699 13 30.196c0 9.497 7.849 17.195 17.53 17.195 3.834 0 7.38-1.206 10.264-3.253l7.148 7.01a3.004 3.004 0 004.19 0 2.867 2.867 0 000-4.11l-7.188-7.05z" fill="#DB2883"/><path d="M12.17 27C10.42 27 9 28.343 9 30s1.42 3 3.17 3h18.66c1.75 0 3.17-1.343 3.17-3s-1.42-3-3.17-3H12.17z" fill="#FF3D4B"/><path fill-rule="evenodd" clip-rule="evenodd" d="M9 38c0-1.657 1.455-3 3.25-3h7.5c1.795 0 3.25 1.343 3.25 3s-1.455 3-3.25 3h-7.5C10.455 41 9 39.657 9 38zM9 46c0-1.657 1.42-3 3.17-3h13.66c1.75 0 3.17 1.343 3.17 3s-1.42 3-3.17 3H12.17C10.42 49 9 47.657 9 46z" fill="#FF3D4B"/><path fill-rule="evenodd" clip-rule="evenodd" d="M28.819 47.002A2.85 2.85 0 0029 46c0-1.657-1.42-3-3.17-3h-6.52a17.859 17.859 0 009.509 4.002zM17.259 41h2.57C21.58 41 23 39.657 23 38s-1.42-3-3.17-3h-5.987a17.306 17.306 0 003.415 6zM13 29.681c0-.912.071-1.807.209-2.681h17.62C32.58 27 34 28.343 34 30s-1.42 3-3.17 3H13.321A17.186 17.186 0 0113 29.681z" fill="#F8BB0A"/></svg>