<svg width="78" height="32" viewBox="0 0 78 32" fill="none" xmlns="http://www.w3.org/2000/svg">
<g clip-path="url(#clip0)">
<path d="M37.148 5.42703C37.148 8.42438 34.7253 10.8541 31.7365 10.8541C28.7477 10.8541 26.3246 8.42438 26.3246 5.42703C26.3246 2.42968 28.7477 0 31.7365 0C34.7253 0 37.148 2.42968 37.148 5.42703Z" fill="#FF8017"/>
<path d="M71.9636 5.42703C71.9636 8.42438 69.5408 10.8541 66.552 10.8541C63.5632 10.8541 61.1402 8.42438 61.1402 5.42703C61.1402 2.42968 63.5632 0 66.552 0C69.5408 0 71.9636 2.42968 71.9636 5.42703Z" fill="#9400B7"/>
<path d="M0 22.1982V32H8.41346V23.1987H13.9174V32H22.3305V23.1987H27.8347V14.5768H7.60019C3.40276 14.5768 0 17.9887 0 22.1982Z" fill="#F8BB0A"/>
<path d="M28.6477 14.5768H27.8347V23.1987V24.3781C27.8347 28.5875 31.2375 32 35.4349 32H36.2479V23.1703V22.1988C36.2479 17.9893 32.8451 14.5768 28.6477 14.5768Z" fill="#FF8017"/>
<path d="M64.0826 14.5768V23.1987H69.5869V32H78V22.1988C78 17.9893 74.5973 14.5768 70.3998 14.5768H64.0826Z" fill="#9400B7"/>
<path d="M55.6692 23.3782H50.1653V14.5768H41.7518V23.3782H36.2479V32H55.6692V23.3782Z" fill="#FF3D4B"/>
<path d="M55.6695 22.1988V32H56.4825C60.6799 32 64.0826 28.5875 64.0826 24.3781V14.5768H63.2697C59.0723 14.5768 55.6695 17.9893 55.6695 22.1988Z" fill="#DB2883"/>
<path d="M16.3926 5.42703C16.3926 8.42438 13.9698 10.8541 10.981 10.8541C7.9922 10.8541 5.56915 8.42438 5.56915 5.42703C5.56915 2.42968 7.9922 0 10.981 0C13.9698 0 16.3926 2.42968 16.3926 5.42703Z" fill="#F8BB0A"/>
</g>
<defs>
<clipPath id="clip0">
<rect width="78" height="32" fill="white"/>
</clipPath>
</defs>
</svg>
