<svg width="78" height="32" fill="none" xmlns="http://www.w3.org/2000/svg"><g clip-path="url(#clip0)"><path d="M37.148 5.427c0 2.997-2.423 5.427-5.412 5.427-2.988 0-5.411-2.43-5.411-5.427C26.325 2.43 28.748 0 31.737 0c2.988 0 5.411 2.43 5.411 5.427z" fill="#FF8017"/><path d="M71.964 5.427c0 2.997-2.423 5.427-5.412 5.427s-5.412-2.43-5.412-5.427C61.14 2.43 63.563 0 66.552 0s5.412 2.43 5.412 5.427z" fill="#9400B7"/><path d="M0 22.198V32h8.413v-8.801h5.504V32h8.414v-8.801h5.504v-8.622H7.6c-4.197 0-7.6 3.412-7.6 7.621z" fill="#F8BB0A"/><path d="M28.648 14.577h-.813v9.802c0 4.208 3.402 7.621 7.6 7.621h.813v-9.801c0-4.21-3.403-7.622-7.6-7.622z" fill="#FF8017"/><path d="M64.083 14.577v8.622h5.504V32H78v-9.801c0-4.21-3.403-7.622-7.6-7.622h-6.317z" fill="#9400B7"/><path d="M55.67 23.378h-5.505v-8.801h-8.413v8.801h-5.504V32h19.421v-8.622z" fill="#FF3D4B"/><path d="M55.67 22.199V32h.813c4.197 0 7.6-3.413 7.6-7.622v-9.801h-.813c-4.198 0-7.6 3.412-7.6 7.622z" fill="#DB2883"/><path d="M16.393 5.427c0 2.997-2.423 5.427-5.412 5.427s-5.412-2.43-5.412-5.427C5.57 2.43 7.992 0 10.981 0s5.412 2.43 5.412 5.427z" fill="#F8BB0A"/></g><defs><clipPath id="clip0"><path fill="#fff" d="M0 0h78v32H0z"/></clipPath></defs></svg>